HIERARCHY
ROOT hip
{
	OFFSET 0.000000 0.000000 0.000000 
	CHANNELS 6 Xposition Yposition Zposition Xrotation Zrotation Yrotation
	JOINT abdomen
	{
		OFFSET 0.000000 3.402643 0.000000 
		CHANNELS 3 Xrotation Zrotation Yrotation
		JOINT chest
		{
			OFFSET 0.000000 8.438565 -0.680529 
			CHANNELS 3 Xrotation Zrotation Yrotation
			JOINT neck
			{
				OFFSET 0.000000 10.207942 -0.272212 
				CHANNELS 3 Xrotation Zrotation Yrotation
				JOINT head
				{
					OFFSET 0.000000 3.130431 0.000000 
					CHANNELS 3 Xrotation Zrotation Yrotation
					End Site
					{
						OFFSET 0.000000 3.130435 0.000000 
					}
				}
			}
			JOINT lCollar
			{
				OFFSET 3.470700 6.669187 -0.816635 
				CHANNELS 3 Yrotation Zrotation Xrotation
				JOINT lShldr
				{
					OFFSET 3.198488 0.000000 0.000000 
					CHANNELS 3 Zrotation Yrotation Xrotation
					JOINT lForeArm
					{
						OFFSET 10.139888 0.000000 0.000000 
						CHANNELS 3 Yrotation Zrotation Xrotation
						JOINT lHand
						{
							OFFSET 8.370511 0.000000 0.000000 
							CHANNELS 3 Zrotation Yrotation Xrotation
							End Site
							{
								OFFSET 4.083176 0.000000 0.000000 
							}
						}
					}
				}
			}
			JOINT rCollar
			{
				OFFSET -3.470700 6.669187 -0.816635 
				CHANNELS 3 Yrotation Zrotation Xrotation
				JOINT rShldr
				{
					OFFSET -3.198488 0.000000 0.000000 
					CHANNELS 3 Zrotation Yrotation Xrotation
					JOINT rForeArm
					{
						OFFSET -10.139888 0.000000 0.000000 
						CHANNELS 3 Yrotation Zrotation Xrotation
						JOINT rHand
						{
							OFFSET -8.370511 0.000000 0.000000 
							CHANNELS 3 Zrotation Yrotation Xrotation
							End Site
							{
								OFFSET -4.083176 0.000000 0.000000 
							}
						}
					}
				}
			}
		}
	}
	JOINT lThigh
	{
		OFFSET 5.308129 -1.633274 1.361059 
		CHANNELS 3 Xrotation Zrotation Yrotation
		JOINT lShin
		{
			OFFSET -2.041588 -20.007561 0.000000 
			CHANNELS 3 Xrotation Zrotation Yrotation
			JOINT lFoot
			{
				OFFSET 0.000000 -19.190928 -1.224953 
				CHANNELS 3 Xrotation Yrotation Zrotation
				End Site
				{
					OFFSET 0.000000 -2.449906 4.627600 
				}
			}
		}
	}
	JOINT rThigh
	{
		OFFSET -5.308129 -1.633274 1.361059 
		CHANNELS 3 Xrotation Zrotation Yrotation
		JOINT rShin
		{
			OFFSET 2.041588 -20.007561 0.000000 
			CHANNELS 3 Xrotation Zrotation Yrotation
			JOINT rFoot
			{
				OFFSET 0.000000 -19.190928 -1.224953 
				CHANNELS 3 Xrotation Yrotation Zrotation
				End Site
				{
					OFFSET 0.000000 -2.449906 4.627600 
				}
			}
		}
	}
}
MOTION
Frames: 15
Frame Time: 0.016667
2.828800 45.857956 0.231881 1.585300 -3.680240 -3.842440 -22.797501 4.191160 -2.415130 14.534900 5.283350 -0.751272 12.302480 -6.762358 -18.590616 14.803600 10.467900 -3.777650 2.000000 -2.000000 0.000000 92.515800 164.570007 -8.053970 40.068802 -0.319474 0.088063 0.050316 -0.042319 -152.214996 -2.000000 2.000000 0.000000 64.148697 7.731010 123.642998 -22.705299 0.340969 0.052774 -0.055354 -0.007728 -130.662003 -7.020374 1.870736 2.755789 26.759674 3.179757 1.923069 -16.514059 2.236281 0.942774 -7.503925 4.650506 2.381689 25.172112 -2.875953 -1.907350 -15.158644 -5.401268 -1.860231 
2.763902 45.857956 0.252120 1.585200 -3.621660 -3.479480 -22.748400 4.177260 -2.341450 14.574800 5.215740 -0.711290 12.327792 -6.821551 -18.577833 14.852900 10.456500 -3.751050 2.000000 -2.000000 0.000000 -87.669502 15.311800 171.457993 39.717201 -0.320012 0.087419 0.050194 -0.041870 -152.048996 -2.000000 2.000000 0.000000 65.772301 6.752640 124.990997 -22.480700 0.341175 0.052279 -0.055287 -0.007103 -130.886993 -7.060927 1.861876 2.552284 26.778738 3.185203 1.924091 -16.516701 2.066761 0.881787 -7.432259 4.689866 2.428365 25.221077 -2.877396 -1.907001 -15.322643 -5.733086 -1.961804 
2.699005 45.857956 0.272359 1.585100 -3.563090 -3.116530 -22.708799 4.157450 -2.255670 14.614600 5.148120 -0.661634 12.356722 -6.892881 -18.555880 14.902100 10.445100 -3.734230 2.000000 -2.000000 0.000000 -87.845001 15.193500 170.979996 39.365601 -0.320546 0.086772 0.050074 -0.041421 -151.882996 -2.000000 2.000000 0.000000 67.366501 5.744940 126.307999 -22.246300 0.341388 0.051762 -0.055219 -0.006450 -131.121002 -7.060084 1.856349 2.347102 26.749939 3.178871 1.923009 -16.513916 1.930639 0.828367 -7.377417 4.737609 2.463953 25.231495 -2.875520 -1.916158 -15.451180 -6.057611 -2.079943 
2.637117 45.853848 0.300237 1.497020 -3.553480 -2.671360 -22.601200 4.163000 -2.269590 14.781600 5.110790 -0.662354 12.244607 -6.968271 -18.456881 14.880900 10.407500 -3.735240 2.000000 -2.000000 0.000000 -88.157303 15.036300 170.608994 39.033600 -0.321047 0.086158 0.050074 -0.041421 -151.882996 -2.000000 2.000000 0.000000 68.882797 4.766350 127.722000 -22.412399 0.341237 0.052128 -0.055239 -0.006641 -131.052994 -7.045001 1.919456 2.199534 26.856768 3.190804 1.924488 -16.523382 1.662107 0.745528 -7.215935 4.832098 2.472821 25.193256 -2.865548 -1.914563 -15.509425 -6.491826 -2.232230 
2.575219 45.849598 0.328115 1.418730 -3.543840 -2.236590 -22.503000 4.159210 -2.280490 14.948700 5.063670 -0.662344 12.145554 -7.061654 -18.346296 14.849700 10.370200 -3.737980 2.000000 -2.000000 0.000000 -88.469498 14.859700 170.238007 38.711300 -0.321530 0.085560 0.050066 -0.041394 -151.873001 -2.000000 2.000000 0.000000 70.369598 3.758430 129.106995 -22.588100 0.341077 0.052516 -0.055258 -0.006831 -130.983994 -7.060007 1.976323 2.073463 26.944792 3.194978 1.924353 -16.488295 1.410315 0.660643 -7.045346 4.932728 2.472501 25.221424 -2.877851 -1.916780 -15.636437 -6.923568 -2.377815 
2.510760 45.846252 0.345643 1.399180 -3.553630 -1.766870 -22.551399 4.141810 -2.298740 14.880400 5.033920 -0.675257 12.006045 -7.116867 -18.212234 14.758300 10.315800 -3.745000 2.000000 -2.000000 0.000000 -88.684196 14.956400 169.856995 38.506302 -0.321835 0.085178 0.049483 -0.039145 -151.042999 -2.000000 2.000000 0.000000 71.779297 2.651950 131.039993 -22.832300 0.340852 0.053053 -0.055186 -0.006124 -131.238007 -7.095010 2.045762 1.791624 27.013754 3.197226 1.933830 -16.539633 1.271014 0.595097 -6.978267 5.031828 2.324505 25.241226 -2.880131 -1.926706 -15.719306 -7.195656 -2.477211 
2.446322 45.842796 0.363166 1.389410 -3.563410 -1.307520 -22.599899 4.130000 -2.329860 14.821900 4.994540 -0.686277 11.867519 -7.158057 -18.079119 14.656600 10.252100 -3.766870 2.000000 -2.000000 0.000000 -88.899002 15.043400 169.466003 38.301201 -0.322139 0.084794 0.048932 -0.036886 -150.212997 -2.000000 2.000000 0.000000 73.149803 1.496580 132.932007 -23.086201 0.340616 0.053611 -0.055118 -0.005416 -131.492004 -7.232806 2.113834 1.505516 27.140511 3.206698 1.934582 -16.531878 1.107036 0.548135 -6.927697 5.123634 2.174410 25.192751 -2.866564 -1.905063 -15.738228 -7.459965 -2.568438 
2.398533 45.841251 0.380231 1.398940 -3.397430 -0.796244 -22.557501 4.029500 -2.347450 14.930100 4.946870 -0.711218 11.781089 -7.115417 -18.063114 14.616300 10.234300 -3.777350 2.000000 -2.000000 0.000000 -89.074699 14.965200 169.427994 37.969101 -0.322628 0.084171 0.048945 -0.036940 -150.231995 -2.000000 2.000000 0.000000 74.433403 0.681781 135.488998 -23.496401 0.340229 0.054510 -0.054975 -0.003836 -132.057999 -7.228937 1.983420 1.289942 26.985558 3.181707 1.920858 -16.473713 0.946775 0.491711 -6.925753 4.950821 1.794371 25.321608 -2.863161 -1.922010 -15.941566 -7.525957 -2.632153 
2.350757 45.839703 0.397296 1.418270 -3.231430 -0.285465 -22.505301 3.925820 -2.374290 15.038400 4.899180 -0.726574 11.695947 -7.058971 -18.048168 14.566000 10.216800 -3.799310 2.000000 -2.000000 0.000000 -89.240601 14.887000 169.389008 37.627300 -0.323128 0.083527 0.048963 -0.037019 -150.261993 -2.000000 2.000000 0.000000 75.677803 -0.182006 138.026993 -23.906500 0.339835 0.055406 -0.054851 -0.002282 -132.615005 -7.297113 1.834312 1.088284 26.917488 3.178523 1.930678 -16.435450 0.756782 0.408145 -6.883545 4.777702 1.409850 25.311756 -2.863400 -1.922224 -16.045109 -7.588850 -2.708740 
2.283151 45.847164 0.405863 1.525950 -3.289850 0.244024 -22.504900 3.925480 -2.458630 15.028700 4.889380 -0.765533 11.983845 -7.354778 -18.181608 14.863800 10.216000 -3.734070 2.000000 -2.000000 0.000000 -89.504204 14.711100 169.330002 37.480900 -0.323341 0.083250 0.048844 -0.036514 -150.076004 -2.000000 2.000000 0.000000 76.756500 -1.114930 140.886993 -24.795200 0.338961 0.057338 -0.054669 -0.009319 -133.591995 -7.540231 1.992478 0.837168 26.987986 3.170223 1.947447 -16.436016 0.498023 0.331194 -6.913165 4.966823 1.348264 25.168121 -2.835594 -1.938316 -16.082689 -7.968347 -2.831928 
2.215546 45.854607 0.414427 1.643450 -3.358000 0.772443 -22.494699 3.925440 -2.542250 15.018900 4.889300 -0.815193 12.286227 -7.667596 -18.304483 15.161700 10.214900 -3.670510 2.000000 -2.000000 0.000000 -89.757896 14.535100 169.272003 37.324600 -0.323568 0.082953 0.048727 -0.036007 -149.889999 -2.000000 2.000000 0.000000 77.786102 -2.096850 143.725998 -25.683901 0.338057 0.059256 -0.054534 -0.006615 -134.559006 -7.807362 2.134234 0.586910 27.045765 3.181277 1.949309 -16.412895 0.267517 0.236517 -7.011553 5.158782 1.259103 25.117905 -2.838586 -1.920226 -16.150555 -8.373975 -2.995901 
2.196415 45.847027 0.458406 1.516200 -3.309390 0.781176 -22.572701 3.911870 -2.522230 14.901600 4.839730 -0.800856 12.190564 -7.623653 -18.087856 14.972600 10.202500 -3.638720 2.000000 -2.000000 0.000000 -90.080299 14.905700 169.046997 37.275799 -0.323638 0.082861 0.048648 -0.035661 -149.764008 -2.000000 2.000000 0.000000 78.600502 -3.196070 146.516998 -26.347900 0.337362 0.060680 -0.054452 -0.004156 -135.436996 -7.575684 2.077518 0.516235 26.994757 3.187468 1.922145 -16.438097 0.436452 0.297072 -6.839626 5.121909 1.171494 25.165489 -2.849383 -1.911587 -16.230421 -8.281173 -2.973439 
2.177261 45.839577 0.502382 1.398760 -3.270510 0.779132 -22.650900 3.901740 -2.493020 14.774600 4.799790 -0.797879 12.104621 -7.585763 -17.868074 14.783800 10.199600 -3.616520 2.000000 -2.000000 0.000000 -90.392998 15.276300 168.811996 37.217201 -0.323723 0.082749 0.048569 -0.035314 -149.636993 -2.000000 2.000000 0.000000 79.356201 -4.324740 149.296997 -27.002199 0.336661 0.062075 -0.054407 -0.001695 -136.315994 -7.407613 2.019298 0.419239 27.004847 3.188736 1.931974 -16.481936 0.590487 0.338469 -6.624831 5.060506 1.118404 25.135052 -2.854812 -1.903432 -16.306417 -8.177265 -2.933887 
2.138145 45.836628 0.518947 1.369600 -3.397470 0.767993 -22.721201 3.940760 -2.388280 14.687300 4.692180 -0.735692 12.244902 -7.399158 -17.930895 14.738400 10.316500 -3.602010 2.000000 -2.000000 0.000000 -90.588303 15.451800 168.714005 37.168400 -0.323793 0.082657 0.048660 -0.035714 -149.783005 -2.000000 2.000000 0.000000 80.111397 -5.336100 151.940994 -27.695601 0.335901 0.063545 -0.054400 0.000684 -137.166000 -7.512752 2.186904 0.414564 27.218719 3.214318 1.945194 -16.548656 0.634411 0.352274 -6.612150 5.283781 1.286097 25.144726 -2.859984 -1.914117 -16.298300 -8.349904 -2.984542 
2.099028 45.833794 0.535511 1.340430 -3.524430 0.756983 -22.781401 3.976660 -2.291960 14.590200 4.584510 -0.682941 12.386178 -7.207681 -18.007261 14.693000 10.433400 -3.589430 2.000000 -2.000000 0.000000 -90.793503 15.617600 168.615997 37.119499 -0.323864 0.082564 0.048745 -0.036087 -149.919998 -2.000000 2.000000 0.000000 80.827400 -6.376870 154.576004 -28.389000 0.335123 0.065005 -0.054427 0.003036 -138.005997 -7.515628 2.374819 0.424056 27.277296 3.214350 1.934797 -16.566053 0.681950 0.378832 -6.495549 5.499875 1.456863 25.008795 -2.844798 -1.912914 -16.255125 -8.527004 -3.024262 
